<svg id="Layer_1" data-name="Layer 1" xmlns="http://www.w3.org/2000/svg" viewBox="0 0 1804 1932.45"><defs><style>.cls-1,.cls-2,.cls-3{isolation:isolate;}.cls-1{font-size:32px;fill:#fff;font-family:Roboto-Regular, Roboto;}.cls-2{fill:#c7ced5;opacity:0.25;}.cls-3{fill:#ffe599;opacity:0.48;}</style></defs><text class="cls-1" transform="translate(1184.95 1317.11)">- Ramón (Comisión 3)</text><path class="cls-2" d="M1916.82,518.72,1680,324.33a117.08,117.08,0,0,1-16.21-164.77h0a117.07,117.07,0,0,1,164.76-16.21l236.83,194.4a117.07,117.07,0,0,1,16.21,164.76h0A117.07,117.07,0,0,1,1916.82,518.72Z"/><path class="cls-3" d="M1442.52,1456.17l149.53,39.3c57.72,15.17,77.38,87.13,35.38,129.53l-108.8,109.85-108.8,109.91c-42,42.4-114.14,23.44-129.86-34.13l-40.74-149.15-40.76-149.2c-15.7-57.52,36.8-110.52,94.52-95.4Z"/><path class="cls-2" d="M-307.88,332-140.34,75.48a117.07,117.07,0,0,1,162-34h0a117.07,117.07,0,0,1,34,162L-111.86,460a117.08,117.08,0,0,1-162,34h0A117.06,117.06,0,0,1-307.88,332Z"/><circle class="cls-3" cx="1665.33" cy="713.17" r="15.41"/><circle class="cls-2" cx="-0.12" cy="755.82" r="15.41" transform="translate(-755.94 754.91) rotate(-89.94)"/><path class="cls-2" d="M-44.21,984.19l236.83,194.4a117.06,117.06,0,0,1,16.22,164.76h0a117.08,117.08,0,0,1-164.77,16.21l-236.82-194.4A117.06,117.06,0,0,1-209,1000.4h0A117.07,117.07,0,0,1-44.21,984.19Z"/></svg>